PathFileType  4	(X/Y/Z) C:\Users\antoi\Documents\MyRepositories\mobilecap\ResultsAnalysis
DataRate	CameraRate	NumFrames	NumMarkers	Units	OrigDataRate	OrigDataStartFrame	OrigNumFrames
100.0	100.0	4	51	mm	100.0	519	1383
Frame#	Time	r_knee			r_shank_antsup			r_ankle			r_calc			r_5meta			r_toe			L_knee			L_shank_antsup			L_ankle			L_calc			L_5meta			L_toe			r_sh2			r_sh3			r_sh4			L_sh2			L_sh3			r_thigh1			r_thigh2			r_thigh3			r_thigh4			r_thigh5			L_thigh1			L_thigh2			L_thigh3			L_thigh4			r.ASIS			r.PSIS			L.ASIS			L.PSIS			C7			R_Shoulder			L_Shoulder			R_Sternum			L_Sternum			R_humerus			R_elbow_med			R_elbow_lat			R_forearm			R_wrist_radius			R_wrist_ulna			L_humerus			L_elbow_med			L_elbow_lat			L_forearm			L_wrist_radius			L_wrist_ulna			R_HJC			L_HJC			R_HJC_reg			L_HJC_reg			
		X1	Y1	Z1	X2	Y2	Z2	X3	Y3	Z3	X4	Y4	Z4	X5	Y5	Z5	X6	Y6	Z6	X7	Y7	Z7	X8	Y8	Z8	X9	Y9	Z9	X10	Y10	Z10	X11	Y11	Z11	X12	Y12	Z12	X13	Y13	Z13	X14	Y14	Z14	X15	Y15	Z15	X16	Y16	Z16	X17	Y17	Z17	X18	Y18	Z18	X19	Y19	Z19	X20	Y20	Z20	X21	Y21	Z21	X22	Y22	Z22	X23	Y23	Z23	X24	Y24	Z24	X25	Y25	Z25	X26	Y26	Z26	X27	Y27	Z27	X28	Y28	Z28	X29	Y29	Z29	X30	Y30	Z30	X31	Y31	Z31	X32	Y32	Z32	X33	Y33	Z33	X34	Y34	Z34	X35	Y35	Z35	X36	Y36	Z36	X37	Y37	Z37	X38	Y38	Z38	X39	Y39	Z39	X40	Y40	Z40	X41	Y41	Z41	X42	Y42	Z42	X43	Y43	Z43	X44	Y44	Z44	X45	Y45	Z45	X46	Y46	Z46	X47	Y47	Z47	X48	Y48	Z48	X49	Y49	Z49	X50	Y50	Z50	X51	Y51	Z51	

519	5.18000000	-199.02804	444.70994	-435.09394	-183.55146	380.35847	-404.73572	-276.46225	93.29484	-427.57284	-344.26320	54.76885	-466.06123	-177.35499	47.00507	-392.38083	-131.59472	69.35311	-444.70219	-194.56333	444.06549	-811.39889	-154.55138	376.19929	-820.33586	-267.77245	93.75581	-807.36360	-340.85408	56.61682	-760.49755	-176.93633	44.25375	-833.73054	-128.26755	68.90609	-778.85227	-211.41018	270.82154	-395.49484	-253.93249	396.93840	-422.13776	-289.49356	285.43255	-416.80051	-237.76026	404.01738	-839.37376	-262.47928	284.13995	-843.18158	-437.59653	630.20202	-476.96558	-333.70698	591.81088	-454.76317	-335.28156	543.89179	-409.60562	-479.60902	558.33916	-407.13921	-376.27311	504.33478	-407.20813	-421.92456	619.58507	-792.85794	-293.35223	570.36742	-797.99504	-469.21831	515.98943	-821.10861	-333.18007	472.96357	-825.62649	-452.54641	641.91459	-485.70622	-611.93438	715.55424	-567.85599	-444.26519	633.79967	-744.79199	-611.99307	711.48731	-675.36989	-211.69471	1016.20307	-605.93148	-198.86869	930.82652	-469.31116	-178.22954	939.46182	-749.70486	-175.17781	869.18395	-585.27643	-170.80120	869.99562	-628.86480	-186.58631	749.97279	-336.95765	-205.96209	626.25760	-354.02361	-188.69090	675.38622	-292.07436	-83.07250	699.28745	-336.58147	11.22885	717.73952	-391.17156	28.18186	678.73919	-376.38734	-150.26084	838.87270	-814.11030	-180.58480	624.15431	-860.49108	-161.06247	657.83204	-921.88558	-54.24028	673.39529	-880.61041	43.47126	673.43981	-814.52033	54.30912	639.67672	-824.77033	-536.74474	591.12066	-516.29744	-526.63294	586.69215	-716.28516	-534.73985	584.54449	-520.23599	-534.83301	578.07468	-691.28091	
520	5.19000000	-202.06561	445.03815	-434.50179	-185.95652	380.79296	-404.19432	-276.82018	93.12261	-427.51436	-344.38019	54.59866	-466.00679	-177.50207	47.42646	-392.32863	-131.88235	70.18553	-444.69882	-197.23859	444.32946	-810.93870	-156.54589	376.84397	-819.81752	-268.21408	93.56759	-807.03382	-341.04168	56.45470	-760.59957	-177.12238	44.60537	-833.61704	-128.58580	69.73716	-778.71399	-212.93431	271.05706	-395.01877	-256.41261	396.51459	-421.46964	-291.30888	285.66530	-416.46587	-239.94452	404.13552	-838.91541	-264.19599	283.47781	-842.41759	-443.79447	626.17744	-476.53932	-339.38434	589.25839	-454.56361	-339.98060	541.57358	-409.25145	-484.53432	553.35044	-406.88004	-380.39895	501.38665	-407.26427	-427.73151	615.35540	-792.50647	-298.36803	568.62352	-797.15746	-473.09467	511.11160	-821.32232	-336.24483	470.63618	-825.39434	-458.22557	635.94513	-485.13748	-617.93284	708.34800	-568.09451	-449.86101	628.26822	-744.42707	-617.83280	704.47685	-675.63763	-215.13342	1009.49624	-605.31663	-203.93159	924.44155	-470.19093	-183.38440	932.58071	-749.07867	-180.88719	861.96312	-585.19277	-176.51886	862.79286	-628.81576	-187.58067	744.77783	-337.34738	-204.62552	620.72279	-353.68991	-187.95709	670.48826	-292.03946	-83.47976	697.16682	-337.54110	9.64950	717.94903	-393.19591	27.75102	679.37189	-378.66242	-153.70415	832.80608	-813.22910	-180.91050	617.39896	-860.87229	-160.63418	651.97602	-921.42964	-54.55110	669.55464	-878.92915	42.50124	671.38791	-811.71482	53.95402	637.80956	-821.73752	-542.10090	584.57477	-516.26064	-531.53528	580.35805	-716.22973	-540.02224	577.85109	-519.90224	-539.86315	571.68921	-691.08600	
521	5.20000000	-205.15684	445.29821	-434.07897	-188.30814	381.29136	-403.67173	-277.22113	92.98462	-427.37757	-344.47178	54.45618	-465.96634	-177.59178	47.88311	-392.23092	-132.14461	71.14531	-444.66499	-200.05674	444.53069	-810.40631	-158.72171	377.43920	-819.25512	-268.60444	93.38396	-806.76071	-341.19290	56.30494	-760.65403	-177.38378	45.18225	-833.54879	-129.01578	70.43509	-778.51595	-214.65854	271.42816	-394.67929	-258.92440	396.41914	-421.00986	-293.17795	285.65576	-416.30480	-242.28456	404.29308	-838.57420	-267.31890	281.79247	-840.54370	-449.65536	622.87144	-475.75461	-344.83522	586.83784	-454.55021	-344.62475	539.49303	-409.16855	-489.26948	548.84703	-406.47013	-384.54762	498.54611	-407.85035	-433.46695	611.25420	-792.30884	-303.38174	566.92334	-796.46362	-477.01361	506.34148	-821.49507	-339.33952	468.50058	-825.19568	-463.78632	630.35111	-484.91100	-623.87712	701.45236	-568.31369	-455.61518	623.21810	-744.38334	-623.69052	697.61867	-675.93978	-219.55777	1003.24320	-604.81260	-209.23909	919.12905	-470.85861	-188.78013	926.42030	-748.55390	-186.80365	855.42575	-585.06334	-182.34553	856.27332	-628.69685	-188.93753	740.41046	-337.40148	-203.76798	615.88277	-353.30359	-187.77884	666.25591	-291.86084	-84.55576	695.69609	-338.52566	7.33063	718.84591	-395.11973	26.59639	680.68581	-380.76163	-157.46154	827.35604	-812.37803	-181.43919	611.48139	-860.97890	-160.82666	646.74567	-920.97604	-55.41662	666.35732	-877.23643	40.83609	670.12306	-809.12355	52.94338	636.62931	-818.69037	-547.23579	578.33036	-516.40899	-536.48745	574.39274	-716.37428	-545.23518	571.73971	-519.77450	-544.93808	565.63800	-691.06734	
522	5.21000000	-208.13684	445.50411	-433.68690	-190.64796	381.85048	-403.24581	-277.65288	92.88654	-427.22894	-344.55882	54.28337	-466.00773	-177.69753	48.29577	-392.16434	-132.39372	72.08921	-444.55643	-202.98006	444.73537	-809.88777	-161.06744	377.97631	-818.69205	-268.89431	93.41720	-806.94276	-341.32391	56.18283	-760.58701	-177.62227	45.71911	-833.32114	-129.44996	71.17501	-778.49667	-216.31333	271.88094	-394.32441	-261.45516	396.83453	-420.83776	-295.05534	285.10711	-416.10108	-244.76337	404.40898	-838.27216	-271.38667	279.99858	-837.96035	-455.46927	619.53501	-475.25558	-350.16736	584.66609	-454.75981	-349.17114	537.56268	-409.24747	-493.83558	544.74345	-406.00882	-388.45160	495.95342	-408.11022	-439.20844	607.13539	-791.65243	-308.40883	565.31180	-795.86405	-480.92022	501.71270	-821.49035	-342.52077	466.46551	-824.92323	-469.20701	625.23123	-484.95435	-629.81341	694.97034	-568.63924	-461.21625	618.39613	-744.77183	-629.59814	690.94080	-676.25171	-224.72528	997.48466	-604.69582	-215.12580	914.14040	-471.11308	-194.43390	920.95933	-748.29730	-192.86582	849.58855	-584.81497	-188.23796	850.35475	-628.50341	-190.74954	736.84459	-337.12843	-203.49754	611.73504	-352.86952	-188.22337	662.68060	-291.41515	-86.41914	694.74593	-339.44457	4.28347	720.37486	-396.91741	24.70160	682.72032	-382.69949	-161.55081	822.56514	-811.71281	-182.10682	606.45510	-860.78811	-161.63514	642.10487	-920.43268	-56.96312	663.81071	-875.62523	38.46227	669.59175	-806.84596	51.45541	636.34756	-816.40468	-552.15992	572.48972	-516.69003	-541.41259	568.68702	-716.65712	-550.31710	566.19276	-519.77468	-549.97313	559.77046	-691.27438	
